<?xml version="1.0" standalone="no"?>
<!DOCTYPE svg PUBLIC "-//W3C//DTD SVG 20010904//EN"
 "http://www.w3.org/TR/2001/REC-SVG-20010904/DTD/svg10.dtd">
<svg version="1.0" xmlns="http://www.w3.org/2000/svg"
 width="544.000000pt" height="544.000000pt" viewBox="0 0 544.000000 544.000000"
 preserveAspectRatio="xMidYMid meet">

<g transform="translate(0.000000,544.000000) scale(0.100000,-0.100000)"
fill="#000000" stroke="none">
<path d="M2580 5434 c-8 -1 -59 -6 -112 -9 l-98 -7 0 -1599 0 -1599 1512 2
1512 3 7 35 c11 54 17 110 30 293 37 490 -86 1034 -332 1479 -403 727 -1112
1229 -1929 1367 -189 32 -516 52 -590 35z"/>
<path d="M1130 4928 c-520 -391 -878 -912 -1034 -1509 -78 -297 -108 -591 -87
-866 13 -183 19 -239 30 -293 l7 -35 577 -3 577 -2 0 1375 c0 756 -3 1375 -7
1374 -5 0 -33 -19 -63 -41z"/>
<path d="M180 1746 c0 -17 91 -209 145 -309 173 -315 393 -585 660 -808 93
-78 200 -159 210 -159 3 0 5 288 5 640 l0 640 -510 0 c-280 0 -510 -2 -510 -4z"/>
<path d="M2370 886 l0 -863 68 -7 c560 -53 1115 60 1594 325 460 255 825 624
1083 1096 54 100 145 292 145 309 0 2 -650 4 -1445 4 l-1445 0 0 -864z"/>
</g>
</svg>
